<?xml version="1.0" encoding="UTF-8"?>
<svg version="1.1" xmlns="http://www.w3.org/2000/svg" width="1563" height="1224">
<path d="M0 0 C16.94199227 -0.16370899 33.88373681 -0.28705198 50.82633972 -0.3626852 C58.69357789 -0.39874064 66.56032389 -0.44787376 74.42724609 -0.52807617 C81.28615913 -0.59796855 88.14471565 -0.64303614 95.00397491 -0.65861946 C98.63426362 -0.66772541 102.26353264 -0.68903882 105.89349365 -0.7401104 C109.95158613 -0.7967395 114.00791969 -0.7979216 118.06640625 -0.79467773 C119.26259079 -0.81984467 120.45877533 -0.8450116 121.69120789 -0.87094116 C123.36108513 -0.85650719 123.36108513 -0.85650719 125.06469727 -0.84178162 C126.02336197 -0.84823417 126.98202667 -0.85468672 127.96974182 -0.8613348 C135.08600265 1.16142456 140.79682277 8.65090794 145.93460083 13.811553 C146.91335252 14.78857393 146.91335252 14.78857393 147.91187698 15.78533265 C150.08571368 17.95653405 152.25598139 20.13126698 154.42626953 22.30601501 C156.0045096 23.88381875 157.5829695 25.4614026 159.16162968 27.03878599 C163.48980286 31.36472642 167.81485725 35.69377322 172.13940406 40.02333844 C176.32726564 44.21507773 180.51748498 48.40445843 184.70764615 52.59389869 C193.27558613 61.16052678 201.84120237 69.72947475 210.40548706 78.299757 C218.88262714 86.78281838 227.36080431 95.26484106 235.84036255 103.74548531 C236.63183486 104.53706072 236.63183486 104.53706072 237.43929651 105.34462757 C240.11906726 108.02473666 242.79885649 110.70482727 245.47865283 113.38491077 C264.4491957 132.35755287 283.4174201 151.33251134 302.38427734 170.30883789 C320.80790621 188.74165422 339.23258746 207.1734176 357.65869141 225.60375977 C358.2268745 226.17207438 358.79505759 226.740389 359.38045835 227.32592528 C365.0864973 233.03328277 370.79255762 238.7406189 376.49863359 244.44793938 C388.122097 256.07393886 399.7454178 267.70008091 411.36865234 279.3263092 C411.9030453 279.86083945 412.43743826 280.3953697 412.98802495 280.94609784 C448.6610729 316.62834318 484.33078611 352.31392204 520 388 C523.51411772 386.49651198 525.7784854 384.47116125 528.47068501 381.77820396 C529.36608157 380.88740619 530.26147814 379.99660842 531.18400794 379.07881677 C532.17365043 378.08415911 533.16319914 377.08940815 534.15266418 376.09457397 C535.20665141 375.04217466 536.26107614 373.99021335 537.31590098 372.93865359 C540.21667041 370.04430781 543.11115003 367.1437419 546.00465453 364.24213576 C549.12521255 361.11500792 552.25152146 357.99363886 555.37712097 354.87155151 C561.50189694 348.75182219 567.62130971 342.62675663 573.73893861 336.49988358 C580.86414478 329.36429803 587.99457045 322.23393783 595.12521108 315.10378368 C607.85167017 302.37782551 620.5732884 289.64703902 633.29223633 276.91357422 C645.63008951 264.56164643 657.9714261 252.21321309 670.31665039 239.86865234 C671.45614362 238.72921905 671.45614362 238.72921905 672.61865691 237.5667669 C673.7561888 236.42929554 673.7561888 236.42929554 674.91670114 235.26884496 C688.97075217 221.21548447 703.02150732 207.15883279 717.07073871 193.10065418 C722.03707287 188.13130696 727.00438006 183.16293363 731.9719944 178.19486618 C738.03104848 172.13512871 744.08819941 166.07349599 750.1430097 160.00951807 C753.23120218 156.91671953 756.32016173 153.82469813 759.41128922 150.73483276 C762.24418901 147.90303354 765.07474862 145.06891638 767.90350004 142.23297341 C768.92416951 141.21050103 769.94566612 140.18885347 770.96809766 139.16814308 C775.97908696 134.16465212 780.86375885 129.1230365 785.4768663 123.7495122 C787.68761584 121.21018601 790.04231602 118.83171612 792.42195129 116.45106506 C793.16997081 115.70070556 793.16997081 115.70070556 793.93310183 114.93518728 C795.57650937 113.28784482 797.22340302 111.64403602 798.87036133 110.00024414 C800.06045838 108.80878981 801.25034308 107.61712335 802.44003296 106.42526245 C805.6501334 103.21062951 808.86335682 99.99913572 812.07731462 96.78835988 C815.4451096 93.42310664 818.81045285 90.05540299 822.17619324 86.68809509 C827.82066262 81.04181081 833.46722779 75.39762889 839.11499023 69.75463867 C845.64885619 63.22622986 852.17909058 56.69420506 858.70748121 50.1603213 C864.31765847 44.54561238 869.92977409 38.93284651 875.54352778 33.32171339 C878.89465281 29.97214881 882.24509499 26.62190871 885.59379005 23.26991463 C888.73602928 20.12479541 891.88068805 16.98211595 895.02726364 13.8413353 C896.18350647 12.6864187 897.33889181 11.53064292 898.49337196 10.37396431 C900.06427702 8.80034282 901.6382035 7.22980834 903.21296692 5.66004944 C904.09432721 4.77906617 904.9756875 3.8980829 905.88375568 2.99040318 C909.10998338 -0.04397891 910.88224956 -0.12439555 915.21377563 -0.12025452 C916.8712809 -0.12231651 916.8712809 -0.12231651 918.56227112 -0.12442017 C919.78002731 -0.12082489 920.99778351 -0.11722961 922.25244141 -0.11352539 C923.5304512 -0.11367142 924.808461 -0.11381744 926.12519836 -0.1139679 C929.63531254 -0.11425549 933.14539273 -0.10836491 936.65549898 -0.10139394 C940.32171234 -0.09515406 943.98792643 -0.0945561 947.65414429 -0.09336853 C954.59915641 -0.09025709 961.54415283 -0.08204621 968.48915803 -0.07201904 C976.39473502 -0.06085211 984.30031275 -0.05534599 992.20589566 -0.05032361 C1008.4706063 -0.03986345 1024.73530115 -0.02226762 1041 0 C1041.69986821 1.76096018 1041.69986821 1.76096018 1042 4 C1040.76171117 5.86400799 1040.76171117 5.86400799 1038.80210865 7.82463717 C1037.69148598 8.95403623 1037.69148598 8.95403623 1036.5584265 10.10625142 C1035.72457344 10.92839865 1034.89072038 11.75054588 1034.03159904 12.59760666 C1033.15798493 13.47848798 1032.28437081 14.3593693 1031.38428354 15.26694399 C1028.9383733 17.7280466 1026.48162089 20.17736099 1024.0198245 22.62251328 C1021.35139627 25.27832429 1018.69741908 27.94850824 1016.04161847 30.61693597 C1011.37887163 35.29779673 1006.7068214 39.96920983 1002.02865791 44.63466072 C995.07224396 51.57222207 988.13010638 58.52393728 981.19077744 65.47858273 C968.79897063 77.89676985 956.39282871 90.30055764 943.98061829 102.69834732 C933.11814654 113.5482602 922.26031038 124.40278508 911.40710831 135.26197052 C910.32882266 136.34082905 910.32882266 136.34082905 909.22875347 137.4414827 C906.31095119 140.36084159 903.3931666 143.28021817 900.47541114 146.19962386 C873.08200769 173.60833605 845.6740191 201.00242211 818.25951909 228.39003142 C793.88503793 252.74078556 769.52351216 277.10442976 745.17285156 301.47900391 C717.83802207 328.84058753 690.49515669 356.19409901 663.13921654 383.53457761 C660.22472384 386.44746663 657.31025088 389.3603754 654.39578629 392.27329254 C653.6781218 392.99056164 652.96045732 393.70783074 652.22104542 394.44683526 C641.36754476 405.29464044 630.52024224 416.1486176 619.67589951 427.00557709 C607.34875415 439.34699247 595.01276527 451.67948985 582.66489844 464.00017443 C575.74827618 470.90207376 568.83866725 477.81082526 561.9388141 484.72948964 C557.33573435 489.34373669 552.72370998 493.94890926 548.10413657 498.54664333 C545.46793683 501.17088903 542.8359331 503.79900935 540.21464883 506.43816099 C537.39759873 509.27421741 534.56168577 512.09089661 531.7234478 514.9057579 C530.90364174 515.7372698 530.08383567 516.56878169 529.239187 517.42549092 C528.48375078 518.16840954 527.72831456 518.91132817 526.94998634 519.67675948 C526.30291095 520.32349607 525.65583556 520.97023267 524.98915183 521.63656734 C522.41142513 523.40342933 521.06793995 523.50929136 518 523 C516.01395152 521.63967069 516.01395152 521.63967069 514.05757636 519.68432218 C513.30382978 518.94309319 512.55008321 518.20186421 511.77349582 517.43817374 C510.95557995 516.60855204 510.13766408 515.77893034 509.29496288 514.92416859 C507.9744427 513.61454921 507.9744427 513.61454921 506.62724534 512.27847287 C504.17231421 509.83871156 501.72914211 507.38814266 499.29015974 504.93249751 C496.63929795 502.26900128 493.97404229 499.61997653 491.31055862 496.96911305 C486.63992932 492.31658486 481.97873115 487.65477017 477.32350922 482.98682785 C470.40117417 476.04562874 463.46467088 469.11872052 456.52524898 462.19460915 C444.13403495 449.82976596 431.75720893 437.45059913 419.38638952 425.06535513 C408.56066724 414.22707138 397.73032977 403.39342646 386.89533424 392.56441307 C385.81865834 391.48831006 385.81865834 391.48831006 384.72023141 390.39046759 C381.80675079 387.47854357 378.89325247 384.56663725 375.97972505 381.65476005 C348.63029564 354.32063698 321.29548825 326.97193297 293.96716228 299.61671279 C269.6699521 275.29577333 245.35984847 250.98779279 221.03881836 226.69067383 C193.73472625 199.41333576 166.4387061 172.12796207 139.1557191 144.82951325 C136.24902433 141.92121481 133.34230981 139.0129361 130.43558693 136.10466576 C129.36197776 135.03046351 129.36197776 135.03046351 128.26667951 133.9345602 C117.4424489 123.10463431 106.61204676 112.28090616 95.77866173 101.46013832 C83.46471902 89.16046541 71.15969398 76.85194949 58.86648216 64.53155503 C51.98013009 57.63048014 45.0869262 50.73641859 38.18380907 43.85211282 C33.57996085 39.2594319 28.98518727 34.65780651 24.39785206 30.04863196 C21.77956318 27.41838914 19.15740025 24.79234252 16.52420541 22.17701522 C13.69455634 19.36637266 10.8842853 16.53686758 8.07583141 13.70503712 C7.24620971 12.88712125 6.41658801 12.06920538 5.56182626 11.22650418 C4.82059727 10.4727576 4.07936829 9.71901102 3.31567782 8.94242364 C2.67041281 8.29681984 2.0251478 7.65121603 1.36032931 6.98604848 C-0.33821846 4.50620909 -0.27074653 2.94433426 0 0 Z " fill="#000000" transform="translate(261,441)"/>
<path d="M0 0 C5.3213336 1.44643615 8.21749164 4.70752618 12.01285553 8.58706474 C13.25914336 9.81908936 13.25914336 9.81908936 14.53060871 11.07600337 C16.83083432 13.35700949 19.11469516 15.65305707 21.39251602 17.95639789 C23.85360698 20.43743453 26.33478746 22.89823728 28.81348419 25.36166191 C33.66472487 30.18947469 38.49696638 35.03588452 43.32288217 39.88899841 C48.94139777 45.53798325 54.57751669 51.16926631 60.21421207 56.8001009 C70.26893927 66.84575854 80.30611253 76.90877782 90.33415985 86.98106194 C100.0692355 96.75907439 109.81858233 106.52257259 119.58318329 116.271101 C130.2127703 126.88323011 140.83446135 137.50314502 151.44240814 148.13690978 C152.57299433 149.27022915 153.70358394 150.4035451 154.83417702 151.5368576 C155.39046238 152.09450432 155.94674774 152.65215103 156.51989023 153.22669613 C160.44457443 157.16000999 164.37467907 161.08785769 168.30675316 165.0137825 C173.09624128 169.79622981 177.87651808 174.58766549 182.64526295 179.39080014 C185.07954923 181.84222871 187.51767406 184.28948489 189.96674728 186.72614861 C192.61647967 189.36675413 195.25042882 192.02213984 197.88077545 194.68203545 C198.66197217 195.45344279 199.44316889 196.22485014 200.24803823 197.01963347 C200.94736725 197.73323462 201.64669626 198.44683577 202.36721706 199.1820612 C202.97705061 199.79379065 203.58688415 200.4055201 204.2151975 201.03578681 C205.88166481 203.51666266 205.83892286 205.01699652 205.50237274 207.9520092 C200.4646751 218.15657918 192.47069702 227.21591391 185.06487274 235.7645092 C184.508354 236.41080914 183.95183525 237.05710907 183.3784523 237.72299385 C168.11068714 255.15279583 152.71294576 264.36968808 129.35944366 266.20739555 C98.79626521 267.95223915 67.93955438 265.82583346 37.50237274 262.9520092 C36.88413334 261.10782814 36.88413334 261.10782814 36.50237274 258.9520092 C38.02044273 256.95145736 39.46176357 255.36044736 41.25408173 253.63267326 C41.77087494 253.11514992 42.28766815 252.59762657 42.82012177 252.0644207 C44.53465303 250.35337841 46.26622607 248.66073036 47.99846649 246.9676342 C49.18925367 245.78617043 50.37894312 244.60359932 51.56757355 243.41996574 C54.70164877 240.30499718 57.85044761 237.20533172 61.00249481 234.10856438 C64.21521636 230.94695569 67.41386038 227.77117598 70.61370087 224.59654045 C76.89618834 218.36770537 83.19431335 212.15493824 89.50237274 205.9520092 C84.98468868 200.53687266 80.19900594 195.51130736 75.20207977 190.53819084 C74.39165726 189.7276223 73.58123474 188.91705376 72.74625397 188.08192253 C70.0865964 185.42295753 67.4234222 182.76754489 64.76018524 180.11216545 C62.90766161 178.26150833 61.05535971 176.41062923 59.20326996 174.55953789 C54.83868794 170.19805243 50.47156522 165.83912034 46.10350311 161.48112053 C41.12686168 156.51569249 36.15309098 151.5473931 31.1795485 146.57886136 C20.95699405 136.36673333 10.73087441 126.15818043 0.50237274 115.9520092 C-4.87867377 120.44297002 -9.87720556 125.19410095 -14.81964874 130.16050529 C-16.0208712 131.36150871 -16.0208712 131.36150871 -17.24636078 132.58677483 C-19.8728603 135.21396682 -22.49580742 137.84467503 -25.11872101 140.4754467 C-26.94695786 142.3055501 -28.77541672 144.13543175 -30.60408783 145.96510124 C-34.91228886 150.27672048 -39.21825739 154.59055746 -43.52313334 158.90549624 C-48.42810267 163.82167967 -53.33594397 168.73499176 -58.24401748 173.64807582 C-68.33173186 183.74621612 -78.41580054 193.84799097 -88.49762726 203.9520092 C-83.04596302 210.58171399 -77.00092544 216.58855471 -70.9318924 222.64472771 C-69.74823516 223.82953816 -68.56479584 225.01456636 -67.38155484 226.1997925 C-64.14036672 229.44514607 -60.89607816 232.68738443 -57.65125656 235.92910457 C-54.14847218 239.42962385 -50.64856964 242.93302245 -47.14829254 246.43604851 C-40.2964893 253.29229583 -33.44198846 260.14584006 -26.58651301 266.9984154 C-21.01752088 272.56514908 -15.44950565 278.13285812 -9.88218689 283.70126534 C-9.08982396 284.4937815 -8.29746103 285.28629766 -7.4810871 286.10282946 C-5.87148353 287.71275276 -4.26188221 289.3226783 -2.6522831 290.93260606 C12.43526102 306.02300074 27.52586723 321.1103303 42.61752352 336.19661231 C55.57697251 349.15158933 68.53379131 362.10919206 81.48870087 375.06870842 C96.52879021 390.11414355 111.57049297 405.1579626 126.61479259 420.19918787 C128.2172623 421.80133903 129.81972993 423.40349229 131.42219543 425.00564766 C132.21067962 425.79397757 132.99916381 426.58230748 133.81154145 427.39452618 C139.37804163 432.96016154 144.94337771 438.52695932 150.50827026 444.09420204 C157.28257193 450.87130175 164.05863901 457.64663024 170.83700946 464.41966049 C174.29771542 467.87773017 177.75760188 471.33660968 181.21534348 474.79764366 C184.37605665 477.96132101 187.53904058 481.12270888 190.70390782 484.28223045 C191.85267926 485.42987829 193.000595 486.57838339 194.14759913 487.72779755 C195.69827549 489.28148378 197.25195236 490.83210408 198.80646896 492.38194656 C200.10365132 493.67888539 200.10365132 493.67888539 201.42703938 495.00202501 C203.34945898 496.99494677 203.34945898 496.99494677 205.50237274 497.9520092 C204.98163246 501.93515042 204.06521988 503.89008733 201.23858261 506.72475052 C200.53602915 507.43896837 199.83347569 508.15318621 199.10963273 508.88904703 C198.32998461 509.66113649 197.5503365 510.43322596 196.74706268 511.22871208 C195.92485851 512.05856735 195.10265434 512.88842262 194.25553489 513.74342501 C191.97153083 516.0445106 189.67874302 518.33640411 187.38191843 520.62468028 C184.90703611 523.09463497 182.44366184 525.57602188 179.97875214 528.05592155 C175.14846305 532.91172581 170.30725368 537.75649896 165.4618533 542.59721987 C161.52518026 546.53032942 157.59205093 550.46694897 153.66142273 554.40609932 C153.10237886 554.96633356 152.543335 555.52656781 151.96735041 556.10377885 C150.83174419 557.24180851 149.69614039 558.37984058 148.56053898 559.51787503 C137.90800673 570.19216552 127.24245884 580.85337714 116.57294986 591.51069446 C106.80482454 601.26847493 97.0532379 611.04259472 87.3093088 620.82453196 C77.30985784 630.86268908 67.29938699 640.88973186 57.27680182 650.90479243 C51.64769219 656.530071 46.02310831 662.1597055 40.41003418 667.80098915 C35.63281303 672.60197522 30.84531821 677.39241323 26.0440686 682.16937439 C23.59330372 684.6083186 21.14768128 687.05190258 18.71477509 689.50867271 C16.07862573 692.16556156 13.42486843 694.80347228 10.76561737 697.43720818 C9.99489214 698.22268197 9.22416691 699.00815577 8.43008637 699.81743181 C7.3606097 700.86528885 7.3606097 700.86528885 6.26952744 701.93431473 C5.65834006 702.54561214 5.04715268 703.15690955 4.41744447 703.78673112 C2.50237274 704.9520092 2.50237274 704.9520092 0.00122207 704.84432423 C-2.79528195 703.84571958 -4.15839074 702.78772597 -6.24637127 700.69266319 C-6.95525562 699.99112633 -7.66413998 699.28958947 -8.39450568 698.56679392 C-9.54373392 697.39906545 -9.54373392 697.39906545 -10.71617889 696.20774651 C-11.53983391 695.38680362 -12.36348893 694.56586074 -13.21210319 693.7200408 C-15.49599051 691.43966841 -17.77066444 689.15054326 -20.04177821 686.85746169 C-22.49325976 684.38666095 -24.95629705 681.92742813 -27.41797638 679.46679497 C-31.68166096 675.20179675 -35.9380096 670.92958906 -40.18952751 666.65246391 C-46.33819306 660.46687369 -52.49834293 654.29282552 -58.66145799 648.12163609 C-68.66241932 638.10703932 -78.65478008 628.0839074 -88.64142609 618.05503654 C-98.33920801 608.31630138 -108.03975868 598.58034184 -117.74494171 588.84898186 C-118.3428834 588.24942387 -118.94082509 587.64986589 -119.55688622 587.03213948 C-126.08106216 580.49049254 -132.60604883 573.9496548 -139.13166523 567.40944481 C-139.70471823 566.83510398 -140.27777122 566.26076315 -140.86818946 565.66901806 C-144.30383004 562.22565827 -144.30383004 562.22565827 -147.73955462 558.78238231 C-154.45309575 552.05417874 -161.16412526 545.3234913 -167.8707454 538.58838856 C-172.07518532 534.3661347 -176.28114725 530.14540162 -180.48831853 525.92586935 C-182.91822531 523.48863698 -185.34723414 521.05052488 -187.77404976 518.61021423 C-190.4004546 515.96997563 -193.02985795 513.33276028 -195.66002655 510.6962719 C-196.81929304 509.52854343 -196.81929304 509.52854343 -198.00197905 508.33722448 C-198.70304017 507.63568762 -199.40410128 506.93415076 -200.12640667 506.21135521 C-200.73352716 505.60168671 -201.34064764 504.99201821 -201.96616572 504.36387491 C-203.46112205 502.85465718 -203.46112205 502.85465718 -205.49762726 501.9520092 C-206.4017096 492.40371995 -195.86322229 482.04482526 -190.07954597 475.01244545 C-188.42223897 473.04057106 -186.74673321 471.08637037 -185.06012726 469.1395092 C-184.50360851 468.49320927 -183.94708977 467.84690933 -183.37370682 467.18102455 C-168.10594165 449.75122257 -152.70820028 440.53433032 -129.35469818 438.69662285 C-98.79151973 436.95177925 -67.9348089 439.07818494 -37.49762726 441.9520092 C-36.87938786 443.79619026 -36.87938786 443.79619026 -36.49762726 445.9520092 C-38.01569724 447.95256104 -39.45701808 449.54357104 -41.24933624 451.27134514 C-41.76612946 451.78886848 -42.28292267 452.30639183 -42.81537628 452.8395977 C-44.52990755 454.55063999 -46.26148058 456.24328804 -47.99372101 457.9363842 C-49.18450819 459.11784797 -50.37419764 460.30041908 -51.56282806 461.48405266 C-54.69690328 464.59902122 -57.84570213 467.69868668 -60.99774933 470.79545403 C-64.21047088 473.95706272 -67.40911489 477.13284242 -70.60895538 480.30747795 C-76.89144286 486.53631303 -83.18956786 492.74908016 -89.49762726 498.9520092 C-84.9799432 504.36714574 -80.19426046 509.39271104 -75.19733429 514.36582756 C-73.98170052 515.58168037 -73.98170052 515.58168037 -72.74150848 516.82209587 C-70.08185092 519.48106087 -67.41867671 522.13647351 -64.75543976 524.79185295 C-62.90291613 526.64251007 -61.05061422 528.49338917 -59.19852448 530.34448051 C-54.83394245 534.70596597 -50.46681974 539.06489806 -46.09875762 543.42289788 C-41.1221162 548.38832591 -36.14834549 553.3566253 -31.17480302 558.32515705 C-20.95224856 568.53728507 -10.72612893 578.74583797 -0.49762726 588.9520092 C4.88341925 584.46104838 9.88195105 579.70991745 14.82439423 574.74351311 C15.6252092 573.94284416 16.42602417 573.14217522 17.25110626 572.31724358 C19.87760578 569.69005159 22.50055291 567.05934337 25.12346649 564.4285717 C26.95170335 562.5984683 28.78016221 560.76858665 30.60883331 558.93891716 C34.91703434 554.62729792 39.22300288 550.31346095 43.52787882 545.99852216 C48.43284815 541.08233874 53.34068945 536.16902664 58.24876297 531.25594258 C68.33647735 521.15780228 78.42054602 511.05602743 88.50237274 500.9520092 C83.04436795 494.30686995 76.97645018 488.30400924 70.88521576 482.24824333 C69.69599659 481.06217139 68.50700744 479.87586877 67.31822765 478.68935645 C64.74043058 476.11745438 62.16103579 473.54716921 59.58039665 470.9781189 C55.38119007 466.79775039 51.18548882 462.61387477 46.99021149 458.42956352 C41.68889509 453.14262369 36.38663509 447.85663315 31.08326547 442.57175292 C20.66964785 432.19441795 10.26223995 421.81087539 -0.14292145 411.42506218 C-1.78153719 409.78955679 -3.42015659 408.15405507 -5.0587796 406.51855695 C-7.54173704 404.04032505 -10.0246908 401.56208946 -12.50762983 399.08383911 C-21.8610099 389.74817103 -31.21507727 380.41319192 -40.56989288 371.07896233 C-41.42480631 370.22592595 -42.27971974 369.37288957 -43.16053964 368.49400361 C-57.03491529 354.65056158 -70.91663187 340.81450071 -84.80059241 326.98067252 C-99.05261128 312.77968029 -113.29511774 298.56919701 -127.52919114 284.35021746 C-136.31179142 275.57760017 -145.10203471 266.81278376 -153.90213974 258.05772556 C-159.92502752 252.06432552 -165.93882289 246.06190331 -171.94543652 240.05219363 C-175.41451392 236.58189388 -178.8876101 233.11587189 -182.37163353 229.66057205 C-185.55747832 226.50082674 -188.73171053 223.32989117 -191.89689232 220.14945133 C-193.04710434 218.99781348 -194.20160917 217.85044484 -195.36066519 216.7077084 C-196.92959817 215.15966033 -198.48249758 213.59714251 -200.03220177 212.02988052 C-200.90078721 211.16373576 -201.76937265 210.29759099 -202.66427886 209.40519941 C-204.49762726 206.9520092 -204.49762726 206.9520092 -204.9716875 204.36928791 C-204.39098964 201.40825375 -203.49951594 200.32573386 -201.37808895 198.19767857 C-200.68224333 197.48756081 -199.98639771 196.77744306 -199.26946586 196.04580659 C-198.49216009 195.27829019 -197.71485433 194.51077379 -196.91399384 193.71999931 C-196.09813877 192.89493316 -195.28228371 192.06986702 -194.44170576 191.21979886 C-192.17248878 188.93018281 -189.89234024 186.65214343 -187.60709965 184.37854016 C-185.146041 181.92466404 -182.69937615 179.45650799 -180.25080109 176.99018669 C-175.4505707 172.15997686 -170.63673044 167.34355516 -165.81770503 162.5321038 C-161.90159312 158.62181133 -157.99000744 154.70704598 -154.08161354 150.78903961 C-153.52578699 150.23186945 -152.96996044 149.67469929 -152.39729067 149.10064519 C-151.26820914 147.96882049 -150.13913227 146.83699114 -149.01006002 145.7051572 C-138.4156575 135.08613747 -127.80518349 124.4832904 -117.18969179 113.88535903 C-107.47511926 104.18588851 -97.78033693 94.46691157 -88.09480982 84.73844465 C-78.15381402 74.75371121 -68.19996718 64.78196197 -58.23187071 54.82428151 C-52.63404276 49.23186408 -47.04142109 43.63446828 -41.46211815 38.02356339 C-36.71212676 33.24697501 -31.95009041 28.48281116 -27.17200886 23.73431518 C-24.73390123 21.31063952 -22.30178579 18.88165719 -19.88452339 16.43717575 C-17.26221527 13.79135096 -14.6194091 11.16789442 -11.97014618 8.54910088 C-10.8276101 7.38109586 -10.8276101 7.38109586 -9.66199249 6.18949479 C-6.4696683 3.07326082 -4.35199806 1.18455796 0 0 Z " fill="#000000" transform="translate(781.4976272583008,-0.9520092010498047)"/>
<path d="M0 0 C3.72296815 0.60829734 5.12643833 2.30146038 7.77873164 4.95948219 C8.27412923 5.44911056 8.76952682 5.93873893 9.27993646 6.44320452 C10.94714177 8.09711005 12.59582445 9.76834112 14.24524909 11.4399662 C15.44468987 12.63722781 16.64522832 13.83339058 17.84677124 15.02854252 C21.15326155 18.32381985 24.44390469 21.63454099 27.73225015 24.94791174 C31.27804822 28.51524846 34.83822842 32.06817925 38.39670783 35.62285805 C44.56265118 41.78617624 50.71935442 47.95860252 56.86992294 54.13726234 C65.76267821 63.0706068 74.66916439 71.99015634 83.57909115 80.90637052 C98.03352903 95.37175876 112.47675969 109.84828381 126.91301948 124.3318119 C140.93874487 138.40341365 154.96969821 152.46976834 169.00774604 166.52907753 C169.87266114 167.39530625 170.73757624 168.26153497 171.62870089 169.15401304 C175.96764238 173.49947959 180.30668718 177.84484296 184.64578336 182.19015503 C220.65803986 218.25426765 256.65214344 254.33645676 292.63445503 290.43044472 C296.95949745 286.80238025 301.0984863 283.08536629 305.07418281 279.07059669 C305.57482934 278.56657119 306.07547587 278.06254569 306.59129351 277.54324669 C308.24630301 275.87596483 309.89761879 274.20507371 311.54900581 272.53420448 C312.74361474 271.32947782 313.93849726 270.1250224 315.13363105 268.92081642 C317.69549815 266.33892647 320.25601209 263.75570464 322.8156417 261.17159653 C326.86204277 257.08768373 330.91504102 253.01036218 334.96962959 248.93457985 C335.65498885 248.2455832 336.34034811 247.55658655 337.04647583 246.84671122 C338.44709293 245.43868957 339.8477261 244.03068391 341.248375 242.6226939 C350.68056276 233.1405681 360.10835497 223.65418253 369.51775581 214.14943886 C375.87625528 207.7266102 382.24524483 201.31439434 388.62668437 194.91435474 C392.00115067 191.52919419 395.36989585 188.13873886 398.72585899 184.73522568 C401.87648296 181.54011574 405.04067066 178.35911161 408.21599418 175.18855286 C409.38023585 174.02105465 410.53930713 172.84837482 411.69283515 171.67028999 C413.2646605 170.06651716 414.85376962 168.48215977 416.44869453 166.90140724 C417.33466378 166.00860841 418.22063304 165.11580957 419.13344985 164.19595623 C421.63445503 162.43044472 421.63445503 162.43044472 424.27108222 162.49611378 C427.89167066 163.92746976 430.30769116 166.53106103 433.00115424 169.24782753 C433.61796561 169.85441704 434.23477699 170.46100655 434.87027961 171.08597755 C436.90367578 173.09159936 438.92189659 175.11171362 440.93914253 177.13356972 C442.34642692 178.53308112 443.75415822 179.93214328 445.16231757 181.33077431 C448.10943698 184.26297449 451.04868923 187.2028016 453.98308784 190.14772987 C457.74936512 193.92561607 461.53792239 197.68024337 465.33310729 201.42905998 C468.2448323 204.31136762 471.14263431 207.20736065 474.03655845 210.10753059 C475.42818196 211.49812545 476.82455628 212.88398242 478.22566825 214.26501656 C480.17977954 216.19453382 482.11394699 218.14206365 484.04412299 220.09548378 C484.92137786 220.94980743 484.92137786 220.94980743 485.81635505 221.82139015 C487.39663154 223.44417763 487.39663154 223.44417763 489.63445503 226.43044472 C489.37218017 230.3419804 488.24153117 232.32394839 485.51122123 235.05983639 C484.84001833 235.74208698 484.16881543 236.42433756 483.47727305 237.12726241 C482.73264347 237.86365123 481.98801389 238.60004004 481.22081977 239.35874367 C480.43536757 240.1511414 479.64991537 240.94353913 478.84066159 241.75994891 C476.19774494 244.42120894 473.54069887 247.06789602 470.88347846 249.71486855 C468.98915881 251.61624284 467.09563066 253.51837674 465.20301276 255.42144203 C460.58919895 260.05691181 455.96454523 264.68141874 451.33582756 269.30200169 C447.57490002 273.05663326 443.81770306 276.81495952 440.06314307 280.57595825 C439.52907746 281.11092552 438.99501184 281.64589279 438.44476242 282.19707119 C437.35988593 283.28379885 436.27501514 284.3705322 435.19014999 285.45727118 C425.01381359 295.65019124 414.82485516 305.83042004 404.6318092 316.00662639 C395.30157657 325.32215739 385.98609461 334.65227798 376.67763975 343.98956601 C367.12383037 353.57274833 357.56087159 363.14670686 347.98758751 372.71043605 C346.90538766 373.79161333 345.82320178 374.87280459 344.74103004 375.95401001 C344.2085553 376.48600835 343.67608057 377.0180067 343.12747024 377.5661262 C339.37196446 381.3194653 335.62248714 385.07876261 331.87535316 388.84045792 C327.31039705 393.42290525 322.73677848 397.99648462 318.15167901 402.55878041 C315.81156986 404.88771879 313.47707403 407.22183172 311.15047866 409.56428146 C308.63033814 412.10023717 306.0954266 414.62041792 303.55602485 417.13706398 C302.82031816 417.8846064 302.08461146 418.63214882 301.32661062 419.40234405 C300.30415979 420.40616183 300.30415979 420.40616183 299.26105338 421.43025875 C298.38528211 422.30562549 298.38528211 422.30562549 297.49181849 423.19867641 C294.89369996 424.92169946 293.70445798 425.0470658 290.63445503 424.43044472 C288.36499052 422.65083443 286.46319182 420.93042158 284.45943195 418.88462734 C283.85260169 418.28506429 283.24577144 417.68550124 282.62055239 417.06776962 C280.57432928 415.03990719 278.54651025 412.994569 276.51804572 410.94895363 C275.04636005 409.4830247 273.5735855 408.01818825 272.0998131 406.55435723 C268.04080044 402.51630196 263.99763294 398.46269451 259.95682257 394.40643561 C255.60112268 390.03946257 251.23111098 385.68685314 246.86289436 381.332407 C238.79825017 373.28875391 230.74510118 365.23372564 222.69778859 357.17274389 C215.26424684 349.72663717 207.82609097 342.28517899 200.38327438 334.8483429 C199.89007862 334.35552907 199.39688287 333.86271524 198.88874178 333.35496765 C196.88682661 331.3546091 194.88489376 329.35426825 192.88293181 327.3539565 C174.09314911 308.57947772 155.31799346 289.79043172 136.54931636 270.99485657 C119.86491229 254.28672346 103.16762981 237.59156409 86.4594062 220.90725136 C67.69881919 202.1734225 48.94631767 183.43156104 30.20683539 164.67661923 C28.21009182 162.67827201 26.21332852 160.67994451 24.21655685 158.68162537 C23.72488778 158.18956091 23.23321871 157.69749645 22.72665058 157.19052095 C15.29333167 149.75150847 7.85385048 142.31869642 0.41137725 134.88884354 C-8.04882472 126.442916 -16.49983894 117.98791335 -24.93955664 109.52150593 C-29.24917068 105.19871488 -33.5627527 100.88008572 -37.88718957 96.57211876 C-41.84103985 92.63310011 -45.78328263 88.68284872 -49.71634456 84.72307601 C-51.14586483 83.28794196 -52.57967429 81.85706583 -54.0180212 80.4307783 C-55.96362333 78.50024973 -57.89337162 76.55517282 -59.8197276 74.6054678 C-60.67430421 73.76844993 -60.67430421 73.76844993 -61.54614499 72.91452262 C-63.82683925 70.57774203 -65.26315963 68.98981531 -65.85953844 65.73156804 C-65.04704946 61.946827 -62.3329929 59.70440454 -59.66168755 57.07961464 C-59.05524407 56.46440956 -58.44880059 55.84920448 -57.82398003 55.21535683 C-55.81508192 53.18444504 -53.78843318 51.17237764 -51.76007622 49.16091347 C-50.3588455 47.75631523 -48.95835777 46.35097542 -47.55858392 44.94492531 C-44.62168927 42.00065658 -41.67593411 39.06562798 -38.72369927 36.13674355 C-34.93800599 32.37953708 -31.17520133 28.60033149 -27.41874188 24.81392384 C-24.53072833 21.90785255 -21.63092351 19.01378381 -18.72739762 16.12321854 C-17.33504197 14.73420105 -15.94639861 13.34145216 -14.5615384 11.94496155 C-12.62498357 9.99572439 -10.6731511 8.06321027 -8.71637505 6.13430214 C-8.14525491 5.55306084 -7.57413476 4.97181953 -6.98570794 4.37296486 C-3.06817941 0.55829909 -3.06817941 0.55829909 0 0 Z " fill="#010101" transform="translate(488.3655449748039,799.5695552825928)"/>
<path d="M0 0 C0.64777047 1.812986 0.64777047 1.812986 1 4 C-0.89776092 6.40175091 -2.76545544 8.43713545 -4.93814278 10.57014179 C-5.59226831 11.23183413 -6.24639385 11.89352647 -6.92034137 12.57527009 C-9.1397906 14.81413959 -11.37682167 17.03459196 -13.61404419 19.25569153 C-15.21522812 20.86334566 -16.81532055 22.47208751 -18.41440666 24.0818283 C-22.83094383 28.52129893 -27.26309118 32.94489844 -31.69786215 37.36614454 C-35.98089888 41.64091293 -40.25222574 45.92732903 -44.52392955 50.21341429 C-53.80497147 59.52471034 -63.10041796 68.82152116 -72.40208093 78.11221265 C-80.54223762 86.24279447 -88.67796085 94.37777874 -96.8092308 102.51724815 C-97.89843008 103.60751321 -98.98762947 104.69777814 -100.07682898 105.78804296 C-101.7179883 107.43082328 -103.35914197 109.07360924 -105.00028191 110.71640892 C-120.26569531 125.99708737 -135.5359945 141.27286957 -150.81671333 156.53824329 C-151.3931859 157.11413709 -151.96965846 157.69003089 -152.56359989 158.28337601 C-157.24550334 162.96051436 -161.92755304 167.6375063 -166.60961129 172.31448968 C-184.87634157 190.5616248 -203.12861616 208.82310504 -221.36914062 227.09643555 C-241.84618063 247.61022553 -262.33299468 268.11417671 -282.83506763 288.60295027 C-285.01936097 290.78588605 -287.20362556 292.96885058 -289.3878746 295.15183067 C-289.92572953 295.68935763 -290.46358445 296.22688459 -291.017738 296.78070024 C-299.15135976 304.90973694 -307.27732668 313.04637333 -315.39957047 321.18677711 C-324.6323485 330.44014244 -333.87559043 339.68290581 -343.1330287 348.91160295 C-347.8602615 353.62471878 -352.58219762 358.3429297 -357.29147911 363.07400322 C-361.59665912 367.39884228 -365.91526864 371.70976443 -370.24534403 376.0096738 C-371.81530321 377.57358929 -373.38013973 379.14266629 -374.93947841 380.71717141 C-377.04847144 382.84518638 -379.17480452 384.95414386 -381.30681038 387.05906391 C-381.91805153 387.68463791 -382.52929269 388.31021191 -383.15905631 388.9547427 C-387.30521734 392.99333309 -387.30521734 392.99333309 -390.73084152 393.02620429 C-394.23456352 391.44168096 -396.69708544 388.87532805 -399.36669922 386.18261719 C-399.98351059 385.57602768 -400.60032196 384.96943817 -401.23582458 384.34446716 C-403.26922075 382.33884535 -405.28744156 380.3187311 -407.3046875 378.296875 C-408.71197189 376.89736359 -410.11970319 375.49830144 -411.52786255 374.09967041 C-414.47498196 371.16747022 -417.41423421 368.22764311 -420.34863281 365.28271484 C-424.1149101 361.50482865 -427.90346737 357.75020134 -431.69865227 354.00138474 C-434.61037728 351.1190771 -437.50817928 348.22308407 -440.40210342 345.32291412 C-441.79372694 343.93231927 -443.19010125 342.5464623 -444.59121323 341.16542816 C-446.54532451 339.2359109 -448.47949196 337.28838107 -450.40966797 335.33496094 C-450.99450455 334.76541183 -451.57934113 334.19586273 -452.18190002 333.60905457 C-453.76217651 331.98626709 -453.76217651 331.98626709 -456 329 C-455.87993785 324.25976416 -453.28760517 321.6038276 -450.18284798 318.32473278 C-449.6739082 317.77193049 -449.16496842 317.21912819 -448.64060622 316.64957431 C-446.92361409 314.79008496 -445.19258286 312.94430712 -443.46096802 311.09843445 C-442.21636216 309.758306 -440.97244549 308.41753721 -439.72916114 307.07618266 C-436.30054008 303.38365621 -432.85813185 299.70424396 -429.41234088 296.02774322 C-427.20851147 293.6745608 -425.00835697 291.31799662 -422.80925751 288.96039391 C-394.32453382 258.43048003 -365.42486397 228.29948323 -336.37638779 198.3063542 C-332.1463331 193.93806844 -327.91907059 189.56708367 -323.69287109 185.19506836 C-323.22595438 184.71215376 -322.75903767 184.22923916 -322.27797197 183.73169078 C-307.75279788 168.70579232 -293.44549498 153.49536404 -279.25537109 138.15307617 C-258.0923312 115.29463406 -236.63174288 92.75623848 -214.6328125 70.69921875 C-213.7499358 69.81270777 -212.86705911 68.9261968 -211.95742857 68.01282185 C-146.86771236 2.78320976 -91.55195259 -26.0181857 0 0 Z " fill="#000000" transform="translate(1562,441)"/>
<path d="M0 0 C0.73637837 -0.04104339 1.47275674 -0.08208678 2.2314496 -0.12437391 C40.8524494 -2.21872334 72.12090913 0.98750142 101.79296875 27.55078125 C111.11476878 35.97962479 119.74631015 45.01130134 128.1875 54.3125 C128.71141705 54.88708797 129.23533409 55.46167593 129.77512741 56.05367565 C140.85513416 68.21568218 151.55390957 80.67894245 161.67456055 93.65307617 C162.37607491 94.54209059 163.07758926 95.431105 163.80036163 96.34705925 C164.42691902 97.17013636 165.05347641 97.99321346 165.69902039 98.8412323 C166.24418651 99.55193469 166.78935263 100.26263708 167.35103893 100.99487591 C168.76356195 103.61363245 168.89135704 105.18858601 168.5 108.125 C166.66829985 110.44988985 164.89287786 112.41560525 162.79614258 114.47583008 C162.1896991 115.09103516 161.58325562 115.70624023 160.95843506 116.34008789 C158.94953694 118.37099968 156.9228882 120.38306708 154.89453125 122.39453125 C153.49330053 123.79912949 152.09281279 125.2044693 150.69303894 126.61051941 C147.75614429 129.55478814 144.81038913 132.48981674 141.8581543 135.41870117 C138.07246102 139.17590764 134.30965636 142.95511323 130.55319691 146.74152088 C127.66518336 149.64759217 124.76537854 152.54166091 121.86185265 155.43222618 C120.469497 156.82124367 119.08085363 158.21399256 117.69599342 159.61048317 C115.75943859 161.55972033 113.80760613 163.49223444 111.85083008 165.42114258 C111.27970993 166.00238388 110.70858978 166.58362518 110.12016296 167.18247986 C107.94795622 169.29765085 106.23115568 170.95581153 103.22973537 171.65033627 C99.0327222 170.84262309 96.72013692 168.0261432 93.83123779 165.07769775 C93.17430286 164.42715164 92.51736792 163.77660553 91.84052587 163.10634589 C89.6351963 160.91631611 87.44823688 158.70881031 85.26074219 156.50097656 C83.68634374 154.93007777 82.1108676 153.36025844 80.53439331 151.79144287 C76.25045209 147.52178128 71.98237331 143.23657748 67.71730709 138.94807148 C63.25751617 134.46821576 58.78478325 130.00131592 54.31378174 125.53265381 C46.80665737 118.02547583 39.30940558 110.50856317 31.81835938 102.98535156 C24.10865238 95.24255251 16.38954803 87.5092818 8.66015625 79.78613281 C-0.65082347 70.4826363 -9.95434612 61.1717522 -19.25069427 51.85363007 C-22.80317396 48.29296273 -26.35838634 44.73505697 -29.9157486 41.17926788 C-34.10221791 36.9936757 -38.28108581 32.80063927 -42.45412827 28.60166168 C-43.98947894 27.05913161 -45.52739888 25.51915411 -47.06801987 23.98188782 C-49.16542196 21.88818327 -51.25340805 19.78552581 -53.33917236 17.68023682 C-53.95540065 17.06933645 -54.57162894 16.45843609 -55.20653081 15.8290236 C-59.92842541 11.03024912 -59.92842541 11.03024912 -60.5 7.125 C-51.3048788 -2.0701212 -13.74820145 0.74234824 0 0 Z " fill="#010101" transform="translate(60.5,434.875)"/>
<path d="M0 0 C3.09161708 1.36907643 5.19614064 3.57580404 7.53973484 5.94483089 C8.33608712 6.73204652 8.33608712 6.73204652 9.14852732 7.53516549 C10.9283706 9.29833882 12.69728924 11.07207898 14.46641636 12.84599972 C15.73894195 14.11118749 17.01208965 15.37574981 18.28581333 16.63973141 C21.74514313 20.07681069 25.19473526 23.5235083 28.64200902 26.97267461 C31.51746354 29.84824863 34.39724267 32.71947255 37.27692431 35.59081239 C44.06704906 42.36169173 50.84895418 49.14072914 57.62608433 55.924613 C64.62701852 62.93219501 71.64259465 69.92487224 78.66535741 76.91057235 C84.68792716 82.9025037 90.70084789 88.90399925 96.7061674 94.91321915 C100.29592191 98.50504657 103.88939488 102.09295088 107.49236584 105.671525 C110.87776877 109.03475922 114.25102397 112.40971163 117.61514378 115.79423046 C118.85447306 117.03698689 120.09811949 118.27545457 121.34625912 119.50936222 C123.04409669 121.1891628 124.72593568 122.88348029 126.40448093 124.58252621 C126.90659763 125.07212505 127.40871432 125.5617239 127.92604667 126.06615907 C129.27422905 127.4501152 129.27422905 127.4501152 131.15464878 129.95415401 C131.05323517 134.48903179 127.3715127 137.17260578 124.33726597 140.1914587 C123.73067646 140.80651775 123.12408695 141.42157681 122.49911594 142.05527401 C120.49104146 144.08675436 118.47194679 146.10683451 116.45152378 148.12602901 C115.05215892 149.53249254 113.65309474 150.93925528 112.25431919 152.34630489 C109.32051389 155.29356279 106.38082796 158.23480578 103.43736362 161.17241573 C99.66298922 164.94088934 95.90719148 168.72729704 92.15603352 172.51886272 C89.27191969 175.42880084 86.37643913 178.32721634 83.4775629 181.22244167 C82.08771652 182.61398381 80.70186176 184.00952442 79.32007694 185.40907192 C77.38826305 187.3629727 75.44128933 189.30039763 73.48960972 191.23442745 C72.92006062 191.8172398 72.35051151 192.40005215 71.76370335 193.00052547 C67.86447606 196.81813923 67.86447606 196.81813923 64.80929756 197.40356255 C61.10221034 196.77598551 59.22697587 194.71983394 56.6940012 192.12842464 C56.16703437 191.60925777 55.64006755 191.0900909 55.09713203 190.5551917 C53.33166902 188.80969742 51.58464608 187.0468411 49.83702183 185.28349972 C48.57625149 184.02950327 47.31441965 182.77657328 46.05160618 181.52463436 C42.62286505 178.11871976 39.21016741 174.69713834 35.80075526 171.27188802 C32.23411783 167.69260916 28.65531719 164.12552618 25.07843113 160.55649471 C19.07324044 154.56040567 13.0786808 148.55383933 7.08995152 142.54131222 C0.16179344 135.58594214 -6.78419398 128.6487685 -13.73971874 121.72077399 C-19.70652653 115.7766414 -25.66355323 109.82283835 -31.61248463 103.86081475 C-35.16753819 100.29795804 -38.72590252 96.73858478 -42.2930994 93.18788242 C-45.64592125 89.84948269 -48.98631557 86.49912964 -52.31743336 83.13907719 C-53.54345121 81.90643657 -54.77376521 80.67805234 -56.00858974 79.45423412 C-57.69074792 77.78569497 -59.35681321 76.10259225 -61.01962185 74.4148016 C-61.51425263 73.93132442 -62.00888342 73.44784725 -62.51850301 72.94971925 C-64.6417106 70.76399021 -65.77930682 69.34175843 -66.29713249 66.30271912 C-65.55206324 62.42950936 -62.74966489 60.16507638 -60.03382778 57.49565792 C-59.41602444 56.86909298 -58.79822109 56.24252804 -58.16169643 55.59697628 C-56.11552879 53.52879628 -54.05160301 51.47944834 -51.98597622 49.43071651 C-50.55992944 48.00130261 -49.13462567 46.5711471 -47.71003628 45.14028072 C-44.72186795 42.14473884 -41.72483645 39.15843329 -38.72132778 36.17827511 C-34.86602387 32.35148375 -31.03363409 28.50265064 -27.20756817 24.64665318 C-24.26897308 21.69002091 -21.31861065 18.74536407 -18.36450863 15.8042326 C-16.94620451 14.38927101 -15.53162485 12.97056624 -14.12081051 11.54813671 C-12.15051168 9.56518643 -10.16498024 7.59889769 -8.17445278 5.63628292 C-7.59038662 5.0420956 -7.00632046 4.44790829 -6.40455532 3.83571529 C-2.40543295 -0.05976068 -2.40543295 -0.05976068 0 0 Z " fill="#010101" transform="translate(293.84535121917725,604.0458459854126)"/>
<path d="M0 0 C3.56184122 1.72680982 6.11526221 4.25312218 8.86868286 7.03036499 C9.48549423 7.6369545 10.1023056 8.24354401 10.73780823 8.86851501 C12.77120439 10.87413682 14.7894252 12.89425108 16.80667114 14.91610718 C18.21395554 16.31561858 19.62168683 17.71468074 21.02984619 19.11331177 C23.9769656 22.04551196 26.91621785 24.98533906 29.85061646 27.93026733 C33.61689374 31.70815353 37.40545101 35.46278083 41.20063591 39.21159744 C44.11236092 42.09390508 47.01016293 44.98989811 49.90408707 47.89006805 C51.29571058 49.28066291 52.6920849 50.66651988 54.09319687 52.04755402 C56.04730815 53.97707128 57.9814756 55.92460111 59.91165161 57.87802124 C60.49648819 58.44757034 61.08132477 59.01711945 61.68388367 59.60392761 C65.43767294 63.45869749 65.43767294 63.45869749 65.71496582 66.71099854 C63.988156 70.27283975 61.46184364 72.82626074 58.68460083 75.5796814 C58.07801132 76.19649277 57.47142181 76.81330414 56.84645081 77.44880676 C54.840829 79.48220293 52.82071474 81.50042374 50.79885864 83.51766968 C49.39934724 84.92495407 48.00028508 86.33268537 46.60165405 87.74084473 C43.66945387 90.68796414 40.72962676 93.62721638 37.78469849 96.56161499 C34.00681229 100.32789228 30.25218499 104.11644955 26.50336838 107.91163445 C23.62106074 110.82335946 20.72506771 113.72116146 17.82489777 116.6150856 C16.43430291 118.00670912 15.04844594 119.40308343 13.6674118 120.8041954 C11.73789454 122.75830669 9.79036471 124.69247414 7.83694458 126.62265015 C6.98262093 127.49990501 6.98262093 127.49990501 6.11103821 128.3948822 C2.25626833 132.14867147 2.25626833 132.14867147 -0.99603271 132.42596436 C-4.55787393 130.69915454 -7.11129492 128.17284218 -9.86471558 125.39559937 C-10.78993263 124.4857151 -10.78993263 124.4857151 -11.73384094 123.55744934 C-13.76723711 121.55182753 -15.78545792 119.53171327 -17.80270386 117.50985718 C-19.20998825 116.11034577 -20.61771955 114.71128362 -22.02587891 113.31265259 C-24.97299832 110.3804524 -27.91225056 107.44062529 -30.84664917 104.49569702 C-34.61292646 100.71781082 -38.40148373 96.96318352 -42.19666862 93.21436691 C-45.10839364 90.33205928 -48.00619564 87.43606624 -50.90011978 84.5358963 C-52.2917433 83.14530145 -53.68811761 81.75944448 -55.08922958 80.37841034 C-57.04334087 78.44889308 -58.97750832 76.50136325 -60.90768433 74.54794312 C-61.4925209 73.97839401 -62.07735748 73.40884491 -62.67991638 72.82203674 C-66.43370565 68.96726686 -66.43370565 68.96726686 -66.71099854 65.71496582 C-64.98418872 62.1531246 -62.45787636 59.59970361 -59.68063354 56.84628296 C-59.07404404 56.22947159 -58.46745453 55.61266022 -57.84248352 54.97715759 C-55.83686171 52.94376143 -53.81674745 50.92554062 -51.79489136 48.90829468 C-50.39537995 47.50101028 -48.9963178 46.09327899 -47.59768677 44.68511963 C-44.66548658 41.73800022 -41.72565947 38.79874797 -38.7807312 35.86434937 C-35.002845 32.09807208 -31.2482177 28.30951481 -27.49940109 24.51432991 C-24.61709346 21.6026049 -21.72110042 18.7048029 -18.82093048 15.81087875 C-17.43033563 14.41925524 -16.04447866 13.02288092 -14.66344452 11.62176895 C-12.73392726 9.66765767 -10.78639743 7.73349022 -8.83297729 5.80331421 C-8.26342819 5.21847763 -7.69387909 4.63364105 -7.10707092 4.03108215 C-3.25230104 0.27729288 -3.25230104 0.27729288 0 0 Z " fill="#020202" transform="translate(1042.4980163574219,831.7870178222656)"/>
</svg>
